<?xml version="1.0" standalone="no"?>
<!DOCTYPE svg PUBLIC "-//W3C//DTD SVG 20010904//EN"
 "http://www.w3.org/TR/2001/REC-SVG-20010904/DTD/svg10.dtd">
<svg version="1.0" xmlns="http://www.w3.org/2000/svg"
 width="300.000000pt" height="100.000000pt" viewBox="0 0 300.000000 100.000000"
 preserveAspectRatio="xMidYMid meet">
<metadata>
Created by potrace 1.13, written by Peter Selinger 2001-2015
</metadata>
<g transform="translate(0.000000,100.000000) scale(0.100000,-0.100000)"
fill="#000000" stroke="none">
<path d="M82 907 c-22 -23 -22 -27 -22 -411 l0 -387 25 -24 24 -25 299 0 c288
0 300 1 326 21 l26 20 0 395 c0 381 -1 395 -20 414 -19 19 -33 20 -328 20
l-309 0 -21 -23z m631 -16 c15 -12 17 -52 17 -389 0 -335 -2 -377 -17 -394
-15 -17 -38 -18 -301 -18 -252 0 -288 2 -304 17 -17 15 -18 40 -18 388 0 382
1 394 40 408 8 3 139 5 291 4 217 -2 279 -5 292 -16z"/>
<path d="M220 651 l0 -160 73 25 c96 33 156 44 184 33 23 -8 23 -10 23 -189
l0 -180 45 0 45 0 0 196 c0 115 -4 203 -10 215 -26 47 -98 60 -202 35 l-58
-13 0 98 0 99 -50 0 -50 0 0 -159z"/>
<path d="M930 505 l0 -255 40 0 40 0 0 135 c0 153 1 156 89 158 l46 2 3 -147
3 -148 39 0 40 0 0 154 c0 148 -1 156 -23 182 -21 24 -30 27 -83 26 -33 0 -72
-5 -87 -11 l-27 -11 0 85 0 85 -40 0 -40 0 0 -255z"/>
<path d="M2300 505 l0 -255 40 0 40 0 0 80 c0 73 2 80 20 80 22 0 65 -54 94
-118 18 -40 21 -42 63 -42 23 0 43 3 43 8 0 7 -78 140 -101 173 -10 13 -2 30
40 89 28 40 51 77 51 82 0 4 -20 8 -45 8 -25 0 -45 -4 -45 -8 0 -5 -18 -37
-40 -70 -27 -42 -46 -62 -60 -62 -19 0 -20 6 -20 145 l0 145 -40 0 -40 0 0
-255z"/>
<path d="M1397 609 c-38 -4 -71 -10 -74 -12 -26 -26 -31 -227 -7 -286 27 -68
117 -90 233 -55 50 14 52 17 46 42 -4 15 -8 28 -9 30 -2 1 -33 -4 -69 -13 -94
-22 -137 0 -137 69 l0 26 115 0 115 0 0 58 c0 121 -56 158 -213 141z"/>
<path d="M2020 610 c-86 -16 -120 -69 -120 -187 0 -130 47 -183 160 -183 75 0
119 24 148 80 45 89 20 240 -45 273 -35 18 -97 25 -143 17z m99 -77 c46 -37
47 -161 3 -206 -26 -25 -95 -27 -122 -2 -41 37 -38 158 5 201 29 29 83 32 114
7z"/>
<path d="M1777 599 c-21 -5 -51 -16 -67 -24 l-30 -16 0 -154 0 -155 40 0 40 0
0 139 c0 135 1 139 23 145 12 3 34 6 50 6 24 0 27 4 27 35 0 39 -9 41 -83 24z"/>
<path d="M2652 449 l3 -161 30 -25 c27 -24 34 -25 100 -20 38 3 94 15 123 28
l52 22 0 158 0 159 -40 0 -40 0 0 -139 0 -139 -32 -10 c-62 -19 -81 -21 -100
-11 -16 9 -18 24 -18 154 l0 145 -41 0 -40 0 3 -161z"/>
</g>
</svg>
