<?xml version="1.0" ?><svg id="Layer_1" style="enable-background:new 0 0 85.271 114.521;" version="1.1" viewBox="0 0 85.271 114.521" xml:space="preserve" xmlns="http://www.w3.org/2000/svg" xmlns:xlink="http://www.w3.org/1999/xlink"><g><path d="M11.271,114.521H74c6.225,0,11.271-5.046,11.271-11.271V39.656L45.568,0L11.271,0   C5.046,0,0,5.046,0,11.271l0,91.979C0,109.475,5.046,114.521,11.271,114.521z" style="fill:#FDF2CE;"/><g><path d="M25.276,95.643c0-0.768,0.16-1.296,0.48-1.584c0.319-0.288,0.853-0.432,1.6-0.432    c1.301,0,1.995,0.438,2.08,1.312c0.085,2.283,1.184,3.424,3.296,3.424c2.261,0,3.393-1.227,3.393-3.68V82.074H32.86    c-0.405,0-0.726-0.181-0.96-0.544c-0.234-0.362-0.352-0.8-0.352-1.312c0-0.49,0.111-0.912,0.336-1.264    c0.224-0.352,0.549-0.528,0.976-0.528h5.601c0.49,0,0.917,0.118,1.279,0.352c0.363,0.235,0.544,0.555,0.544,0.96v14.944    c0,2.518-0.677,4.368-2.031,5.552c-1.355,1.184-3.131,1.776-5.328,1.776c-2.262,0-4.102-0.57-5.521-1.712    C25.985,99.157,25.276,97.605,25.276,95.643z" style="fill:#FFC003;"/><path d="M44.476,98.138c0-0.49,0.187-0.986,0.56-1.488c0.373-0.501,0.795-0.752,1.264-0.752    c0.277,0,0.593,0.133,0.944,0.399c0.353,0.266,0.693,0.56,1.024,0.881c0.33,0.322,0.805,0.615,1.424,0.881    c0.618,0.266,1.301,0.399,2.048,0.399c1.024,0,1.877-0.235,2.56-0.704s1.024-1.163,1.024-2.08c0-0.64-0.187-1.21-0.56-1.712    c-0.374-0.501-0.864-0.917-1.473-1.248c-0.607-0.331-1.274-0.65-2-0.96c-0.726-0.309-1.456-0.656-2.191-1.04    c-0.736-0.384-1.408-0.816-2.017-1.296c-0.607-0.48-1.099-1.12-1.472-1.92c-0.374-0.8-0.56-1.712-0.56-2.736    c0-1.147,0.229-2.16,0.688-3.037c0.459-0.877,1.072-1.559,1.84-2.046c0.769-0.487,1.589-0.844,2.464-1.072    c0.875-0.227,1.803-0.341,2.784-0.341c0.555,0,1.142,0.038,1.76,0.115c0.619,0.077,1.274,0.203,1.969,0.378    c0.692,0.176,1.258,0.45,1.695,0.822s0.656,0.811,0.656,1.314c0,0.475-0.149,0.966-0.448,1.474    c-0.299,0.508-0.704,0.761-1.216,0.761c-0.191,0-0.715-0.203-1.568-0.608s-1.803-0.608-2.848-0.608    c-1.152,0-2.043,0.219-2.672,0.656c-0.63,0.438-0.944,1.04-0.944,1.808c0,0.619,0.256,1.157,0.769,1.616    c0.512,0.459,1.146,0.832,1.903,1.12c0.758,0.288,1.579,0.651,2.465,1.088c0.885,0.438,1.706,0.912,2.464,1.424    c0.757,0.512,1.392,1.253,1.903,2.224c0.513,0.971,0.769,2.107,0.769,3.408c0,2.188-0.699,3.876-2.096,5.065    c-1.397,1.189-3.238,1.783-5.521,1.783c-2.027,0-3.766-0.416-5.216-1.248C45.201,100.026,44.476,99.12,44.476,98.138z" style="fill:#FFC003;"/></g><path d="M57.048,39.656h28.223L45.568,0l0.033,28.223C45.609,34.539,50.731,39.656,57.048,39.656z" style="fill:#B8B097;"/><path d="M59.321,37.383c6.417,0.333,25.95,2.273,25.95,2.273L45.568,0c0,0,1.767,19.496,2.306,25.95   C48.4,32.245,53.013,37.057,59.321,37.383z" style="fill:#FFC003;"/><line style="fill:#FDFFEE;" x1="85.271" x2="45.568" y1="39.656" y2="0"/></g></svg>