<?xml version="1.0" encoding="utf-8"?>
<!-- Generator: Adobe Illustrator 21.1.0, SVG Export Plug-In . SVG Version: 6.00 Build 0)  -->
<svg version="1.1" id="Layer_1" xmlns="http://www.w3.org/2000/svg" xmlns:xlink="http://www.w3.org/1999/xlink" x="0px" y="0px"
	 viewBox="0 0 200.5 200" style="enable-background:new 0 0 200.5 200;" xml:space="preserve">
<style type="text/css">
	.st0{fill:#F89A38;}
	.st1{fill:#FCDD6B;}
	.st2{fill:#E25526;}
	.st3{fill:#F47920;}
	.st4{fill:#FFFFFF;}
</style>
<path class="st0" d="M100.9,76c0.8,0,1.7,0.2,2.3,0.7l15.1,10.5c1.3,0.9,3.4,0.9,4.7,0l29.7-20.7c1.3-0.9,1.3-2.4,0-3.2l-49.4-34.4
	c-0.6-0.4-1.5-0.7-2.3-0.7L100.9,76z"/>
<path class="st1" d="M64.9,100.1l33.7-23.4c0.6-0.4,1.5-0.7,2.3-0.7l0-47.9c-0.8,0-1.7,0.2-2.3,0.7L32.9,74.6
	c-0.6,0.4-1.4,1.2-1.8,2.1L64.9,100.1z"/>
<path class="st2" d="M64.9,100.1L31.2,76.7c-0.4,0.8-0.6,1.6-0.6,2.3l0,42.1c0,0.8,0.2,1.6,0.6,2.4L64.9,100.1z"/>
<path class="st0" d="M100.9,171.9c0.8,0,1.7-0.2,2.3-0.7l65.7-45.7c1.3-0.9,1.3-2.3,0-3.2l-29.7-20.6c-1.3-0.9-3.4-0.9-4.7,0
	l-31.4,21.8c-0.6,0.4-1.5,0.7-2.3,0.7L100.9,171.9z"/>
<path class="st3" d="M64.9,100.1l-33.7,23.4c0.4,0.8,1,1.6,1.7,2.1l65.7,45.6c0.6,0.4,1.5,0.7,2.3,0.7l0-47.7
	c-0.8,0-1.7-0.2-2.3-0.7L64.9,100.1z"/>
</svg>
